<svg width="240" height="172" viewBox="0 0 240 172" fill="none" xmlns="http://www.w3.org/2000/svg">
<path d="M218.463 157.018C213.862 161.514 208.59 165.397 202.803 168.55C202.67 168.625 202.535 168.695 202.4 168.767L193.031 161.198C193.129 161.114 193.238 161.021 193.355 160.918C200.336 154.867 234.993 112.561 237.302 102.258C237.143 103.117 239.386 136.775 218.463 157.018Z" fill="#F0F0F0"/>
<path d="M204.611 170.011C204.434 170.049 204.253 170.086 204.073 170.118L197.044 164.44C197.181 164.396 197.341 164.344 197.525 164.286C200.541 163.312 209.523 160.369 218.462 157.017C228.067 153.414 237.626 149.344 239.682 146.736C239.241 147.342 225.656 165.715 204.611 170.011Z" fill="#F0F0F0"/>
<path d="M218.333 45.0463H217.332V20.0157C217.332 18.1132 216.921 16.2294 216.124 14.4718C215.326 12.7141 214.157 11.1171 212.683 9.77182C211.21 8.42657 209.46 7.35946 207.535 6.63142C205.609 5.90337 203.545 5.52866 201.461 5.52866H143.365C141.28 5.52865 139.217 5.90337 137.291 6.6314C135.366 7.35944 133.616 8.42655 132.142 9.77179C130.669 11.117 129.499 12.7141 128.702 14.4717C127.904 16.2294 127.494 18.1132 127.494 20.0157V157.336C127.494 159.238 127.904 161.122 128.702 162.88C129.499 164.637 130.669 166.234 132.142 167.579C133.616 168.925 135.366 169.992 137.291 170.72C139.217 171.448 141.28 171.823 143.365 171.823H201.461C203.545 171.823 205.609 171.448 207.534 170.72C209.46 169.992 211.21 168.925 212.683 167.58C214.157 166.234 215.326 164.637 216.124 162.88C216.921 161.122 217.332 159.238 217.332 157.336V62.8635H218.333V45.0463Z" fill="#3F3D56"/>
<path d="M213.953 20.1152V157.235C213.953 158.656 213.647 160.063 213.051 161.375C212.455 162.688 211.582 163.881 210.481 164.885C209.38 165.89 208.074 166.686 206.635 167.23C205.197 167.773 203.656 168.052 202.099 168.052H143.723C142.167 168.052 140.626 167.772 139.189 167.229C137.751 166.685 136.445 165.888 135.344 164.884C134.244 163.88 133.371 162.687 132.775 161.375C132.18 160.062 131.874 158.656 131.874 157.235V20.1152C131.874 18.6947 132.18 17.2881 132.775 15.9758C133.371 14.6634 134.244 13.471 135.344 12.4665C136.445 11.4621 137.751 10.6654 139.189 10.1218C140.626 9.57827 142.167 9.29857 143.723 9.29868H150.808C150.46 10.0792 150.328 10.9257 150.422 11.7638C150.517 12.6019 150.836 13.406 151.351 14.1052C151.866 14.8044 152.562 15.3774 153.376 15.7737C154.191 16.1701 155.099 16.3777 156.022 16.3782H189.304C190.228 16.379 191.137 16.1723 191.953 15.7763C192.768 15.3804 193.464 14.8073 193.98 14.1077C194.495 13.408 194.814 12.6034 194.908 11.7647C195.002 10.926 194.868 10.0791 194.519 9.29868H202.099C203.656 9.29816 205.197 9.57756 206.635 10.1209C208.074 10.6643 209.38 11.4609 210.481 12.4654C211.582 13.4698 212.455 14.6624 213.051 15.975C213.647 17.2876 213.953 18.6944 213.953 20.1152V20.1152Z" fill="white"/>
<path d="M195.795 91.3701H144.484C143.585 91.3692 142.724 91.0429 142.088 90.4628C141.453 89.8827 141.095 89.0962 141.094 88.2759V86.7357C141.095 85.9153 141.453 85.1288 142.088 84.5487C142.724 83.9686 143.585 83.6423 144.484 83.6414H195.795C196.694 83.6423 197.555 83.9686 198.191 84.5487C198.826 85.1288 199.184 85.9153 199.185 86.7357V88.2759C199.184 89.0962 198.826 89.8827 198.191 90.4628C197.555 91.0429 196.694 91.3692 195.795 91.3701Z" fill="#F0F0F0"/>
<path d="M195.795 104.647H144.484C143.585 104.646 142.724 104.32 142.088 103.739C141.453 103.159 141.095 102.373 141.094 101.552V100.012C141.095 99.1919 141.453 98.4054 142.088 97.8253C142.724 97.2453 143.585 96.919 144.484 96.918H195.795C196.694 96.919 197.555 97.2453 198.191 97.8253C198.826 98.4054 199.184 99.1919 199.185 100.012V101.552C199.184 102.373 198.826 103.159 198.191 103.739C197.555 104.32 196.694 104.646 195.795 104.647V104.647Z" fill="#F0F0F0"/>
<path d="M198.361 88.4008H147.051C146.107 88.3998 145.202 88.0572 144.535 87.4481C143.868 86.839 143.492 86.0132 143.491 85.1518V83.6117C143.492 82.7503 143.868 81.9245 144.535 81.3154C145.202 80.7063 146.107 80.3637 147.051 80.3627H198.361C199.305 80.3637 200.21 80.7063 200.877 81.3154C201.544 81.9245 201.92 82.7503 201.921 83.6117V85.1518C201.92 86.0132 201.544 86.839 200.877 87.4481C200.21 88.0572 199.305 88.3998 198.361 88.4008V88.4008ZM147.051 80.9815C146.287 80.9823 145.554 81.2597 145.014 81.7527C144.474 82.2458 144.17 82.9143 144.169 83.6117V85.1518C144.17 85.8491 144.474 86.5177 145.014 87.0108C145.554 87.5038 146.287 87.7812 147.051 87.782H198.361C199.125 87.7812 199.858 87.5038 200.398 87.0108C200.938 86.5177 201.242 85.8491 201.243 85.1518V83.6117C201.242 82.9143 200.938 82.2458 200.398 81.7527C199.858 81.2597 199.125 80.9823 198.361 80.9815H147.051Z" fill="#3F3D56"/>
<path d="M198.361 101.677H147.051C146.107 101.676 145.202 101.334 144.535 100.725C143.868 100.116 143.492 99.2898 143.491 98.4285V96.8883C143.492 96.0269 143.868 95.2011 144.535 94.592C145.202 93.9829 146.107 93.6403 147.051 93.6393H198.361C199.305 93.6403 200.21 93.9829 200.877 94.592C201.544 95.2011 201.92 96.0269 201.921 96.8883V98.4285C201.92 99.2898 201.544 100.116 200.877 100.725C200.21 101.334 199.305 101.676 198.361 101.677V101.677ZM147.051 94.2582C146.287 94.2589 145.554 94.5363 145.014 95.0294C144.474 95.5224 144.17 96.191 144.169 96.8883V98.4285C144.17 99.1258 144.474 99.7943 145.014 100.287C145.554 100.78 146.287 101.058 147.051 101.059H198.361C199.125 101.058 199.858 100.78 200.398 100.287C200.938 99.7943 201.242 99.1258 201.243 98.4285V96.8883C201.242 96.191 200.938 95.5224 200.398 95.0294C199.858 94.5363 199.125 94.2589 198.361 94.2582H147.051Z" fill="#3F3D56"/>
<path d="M213.953 20.1152V49.9407C208.762 51.1875 203.326 51.3306 198.064 50.3589C192.802 49.3871 187.854 47.3266 183.602 44.3356C179.349 41.3447 175.905 37.5031 173.534 33.1065C171.163 28.7099 169.928 23.8754 169.926 18.975C169.926 18.1003 169.964 17.2347 170.041 16.3782H189.304C190.228 16.379 191.137 16.1723 191.953 15.7763C192.768 15.3804 193.464 14.8073 193.98 14.1077C194.495 13.408 194.814 12.6034 194.908 11.7647C195.002 10.926 194.868 10.0791 194.519 9.29868H202.099C203.656 9.29816 205.197 9.57756 206.635 10.1209C208.074 10.6643 209.38 11.4609 210.481 12.4654C211.582 13.4698 212.455 14.6624 213.051 15.975C213.647 17.2876 213.953 18.6944 213.953 20.1152V20.1152Z" fill="#F0F0F0"/>
<path d="M161.37 166.189C161.37 166.818 161.344 167.439 161.288 168.052H143.723C142.167 168.052 140.626 167.772 139.189 167.229C137.751 166.685 136.445 165.888 135.344 164.884C134.244 163.88 133.371 162.687 132.775 161.375C132.18 160.062 131.874 158.656 131.874 157.235V142.569C135.556 142.131 139.297 142.416 142.849 143.402C146.401 144.389 149.682 146.055 152.473 148.29C155.264 150.526 157.501 153.278 159.035 156.364C160.569 159.451 161.365 162.8 161.37 166.189H161.37Z" fill="#4FD3C4"/>
<path d="M19.7022 140.454C20.1957 140.653 20.7552 140.664 21.258 140.486C21.7607 140.308 22.1656 139.955 22.3838 139.505L38.2073 106.77C38.5695 106.021 38.6802 105.191 38.5253 104.384C38.3705 103.577 37.9571 102.831 37.3374 102.239C36.7178 101.647 35.9197 101.236 35.0441 101.058C34.1685 100.88 33.2548 100.943 32.4184 101.239H32.4184C31.4521 101.576 30.6435 102.208 30.1302 103.027C30.0485 103.157 29.9745 103.29 29.9083 103.427L14.0848 136.163C13.977 136.386 13.9183 136.626 13.9122 136.87C13.9061 137.114 13.9527 137.356 14.0492 137.583C14.1458 137.811 14.2905 138.018 14.475 138.195C14.6595 138.371 14.8802 138.512 15.1246 138.611L19.7022 140.454Z" fill="#4FD3C4"/>
<path d="M37.5577 120.209L21.9063 117.034L25.7802 107.68C26.4401 105.393 27.9759 103.399 30.1091 102.057C32.2422 100.716 34.8314 100.117 37.407 100.369L37.5577 100.384L37.5577 120.209Z" fill="#2F2E41"/>
<path d="M69.1712 140.923C68.7108 140.922 68.2606 140.799 67.8748 140.57C67.4891 140.341 67.1844 140.014 66.9977 139.63L51.1742 106.895C50.671 105.853 50.6242 104.675 51.0435 103.603C51.4628 102.531 52.3163 101.646 53.4283 101.131C54.5404 100.616 55.8265 100.51 57.022 100.834C58.2175 101.158 59.2315 101.887 59.8554 102.873V102.873C59.9431 103.012 60.0226 103.156 60.0936 103.303L75.917 136.038C76.1711 136.564 76.186 137.16 75.9585 137.695C75.731 138.231 75.2797 138.662 74.7039 138.894L69.9713 140.8L69.9689 140.795C69.713 140.879 69.4432 140.922 69.1712 140.923V140.923Z" fill="#4FD3C4"/>
<path d="M47.2832 129.681C46.744 129.682 46.227 129.878 45.8457 130.226C45.4644 130.574 45.2499 131.046 45.2493 131.538V169.602C45.2499 170.094 45.4644 170.566 45.8457 170.914C46.227 171.262 46.744 171.458 47.2832 171.458H52.2864C52.8257 171.458 53.3427 171.262 53.724 170.914C54.1053 170.566 54.3197 170.094 54.3203 169.602V131.538C54.3197 131.046 54.1053 130.574 53.724 130.226C53.3427 129.878 52.8257 129.682 52.2864 129.681H47.2832Z" fill="#4FD3C4"/>
<path d="M37.3875 129.681C36.8483 129.682 36.3313 129.878 35.95 130.226C35.5687 130.574 35.3542 131.046 35.3536 131.538V169.602C35.3542 170.094 35.5687 170.566 35.95 170.914C36.3313 171.262 36.8483 171.458 37.3875 171.458H42.3908C42.93 171.458 43.447 171.262 43.8283 170.914C44.2096 170.566 44.4241 170.094 44.4247 169.602V131.538C44.4241 131.046 44.2096 130.574 43.8283 130.226C43.447 129.878 42.93 129.682 42.3908 129.681H37.3875Z" fill="#4FD3C4"/>
<path d="M44.6875 89.803C54.2355 89.803 61.9756 82.7377 61.9756 74.0222C61.9756 65.3067 54.2355 58.2415 44.6875 58.2415C35.1395 58.2415 27.3994 65.3067 27.3994 74.0222C27.3994 82.7377 35.1395 89.803 44.6875 89.803Z" fill="#4FD3C4"/>
<path d="M50.4407 80.6467C51.5613 80.6183 52.956 80.5828 54.0305 79.8663C54.3504 79.6442 54.6133 79.361 54.8007 79.0364C54.9881 78.7118 55.0954 78.3537 55.1153 77.9873C55.1347 77.7268 55.0879 77.4658 54.9785 77.2246C54.8691 76.9834 54.7001 76.7686 54.4846 76.597C53.9234 76.1641 53.104 76.0626 52.2208 76.2995L53.1358 70.1958L52.4641 70.1118L51.3885 77.2874L51.9494 77.0525C52.5997 76.7802 53.4923 76.6417 54.047 77.0696C54.1832 77.1814 54.2893 77.3205 54.3571 77.4758C54.4249 77.6312 54.4525 77.7988 54.4378 77.9655C54.4213 78.2382 54.3407 78.5046 54.2014 78.7463C54.0621 78.9881 53.8674 79.1996 53.6306 79.3665C52.7944 79.924 51.6827 79.996 50.4218 80.0281L50.4407 80.6467Z" fill="#2F2E41"/>
<path d="M60.109 70.7222H56.4576V71.3411H60.109V70.7222Z" fill="#2F2E41"/>
<path d="M48.5835 70.7222H44.9321V71.3411H48.5835V70.7222Z" fill="#2F2E41"/>
<path d="M61.8175 141.115L55.5952 99.6517C55.5284 99.2071 55.2875 98.7996 54.917 98.5046C54.5466 98.2096 54.0716 98.0471 53.58 98.0471H48.8832C48.9028 97.9449 48.913 97.8414 48.9137 97.7377V96.1906C48.9136 95.6982 48.6994 95.226 48.3179 94.8778C47.9365 94.5296 47.4192 94.334 46.8798 94.334H42.812C42.2725 94.334 41.7552 94.5296 41.3738 94.8778C40.9924 95.226 40.7781 95.6982 40.7781 96.1906V97.7377C40.7788 97.8414 40.789 97.9449 40.8085 98.0471H36.1118C35.6201 98.0471 35.1452 98.2097 34.7747 98.5046C34.4042 98.7996 34.1633 99.2071 34.0966 99.6517L27.8742 141.115C27.8348 141.377 27.8574 141.645 27.9406 141.899C28.0238 142.153 28.1657 142.387 28.3566 142.587C28.5475 142.787 28.783 142.947 29.0474 143.057C29.3118 143.167 29.5988 143.223 29.8892 143.223H59.8025C60.0929 143.223 60.3799 143.167 60.6443 143.057C60.9087 142.947 61.1442 142.787 61.3351 142.587C61.526 142.387 61.6679 142.153 61.7511 141.899C61.8343 141.645 61.8569 141.377 61.8175 141.115V141.115Z" fill="#2F2E41"/>
<path d="M52.134 120.209V100.384L52.2848 100.369C54.8635 100.117 57.4555 100.718 59.59 102.063C61.7246 103.407 63.2599 105.406 63.9171 107.696L67.7854 117.034L52.134 120.209Z" fill="#2F2E41"/>
<path d="M43.8169 90.2954L31.8591 86.0587C29.9038 85.366 27.9375 84.6943 25.9925 83.9776C25.1594 83.7126 24.3919 83.2998 23.7344 82.7628C23.1619 82.2096 22.7717 81.5204 22.6086 80.7741C22.1938 79.174 22.2688 77.4245 22.2984 75.7916C22.3214 74.0052 22.4824 72.2225 22.7804 70.4569C23.3026 67.1389 24.5289 63.9457 26.3906 61.0564C29.7441 56.0339 35.5219 52.2552 42.1679 52.5567C45.2447 52.6963 48.3393 53.7042 50.6253 55.6244C50.8638 55.8845 51.1313 56.1212 51.4236 56.3306C51.6268 56.4002 51.8479 56.4137 52.0594 56.3696C52.3384 56.3532 52.6176 56.3407 52.897 56.3321C53.8666 56.2948 54.8379 56.332 55.8006 56.4433C57.555 56.6163 59.2179 57.2465 60.5905 58.2588C61.733 59.1558 62.6625 60.4222 62.7582 61.8295C62.8043 62.4756 62.6873 63.1226 62.4161 63.7209C62.1449 64.3191 61.7268 64.8524 61.194 65.2798C59.7674 66.3773 57.7319 65.9915 56.0206 65.9088L49.7516 65.6056L46.5752 65.452C45.9212 65.4204 45.9231 66.3488 46.5752 66.3803L55.0176 66.7886C56.3743 66.8542 57.7725 67.015 59.1303 66.9407C60.1736 66.8976 61.1697 66.5318 61.9551 65.9034C62.6723 65.302 63.2066 64.5411 63.5058 63.6951C63.8051 62.8491 63.859 61.9467 63.6624 61.076C63.2272 59.1769 61.6788 57.6059 59.8636 56.6713C57.3937 55.3996 54.4439 55.2777 51.6802 55.4657L52.0398 55.6017C48.9136 52.5389 44.125 51.2458 39.6295 51.6983C34.883 52.1761 30.6614 54.5933 27.6282 57.8985C24.2463 61.5836 22.4034 66.1786 21.687 70.9036C21.3141 73.4547 21.1914 76.031 21.3202 78.602C21.3149 79.7359 21.5274 80.8618 21.9481 81.9287C22.428 82.967 23.2959 83.8163 24.3973 84.3256C25.66 84.882 26.9581 85.3687 28.2847 85.7832L32.6902 87.3441L41.3438 90.4101L43.5466 91.1905C44.157 91.4068 44.4215 90.5096 43.8169 90.2954Z" fill="#2F2E41"/>
<path d="M25.0154 58.75C23.9762 58.75 22.9603 58.4687 22.0963 57.9417C21.2322 57.4147 20.5588 56.6656 20.1611 55.7893C19.7634 54.9129 19.6593 53.9486 19.8621 53.0182C20.0648 52.0878 20.5652 51.2333 21.3 50.5625C22.0349 49.8918 22.9711 49.435 23.9903 49.2499C25.0095 49.0649 26.066 49.1598 27.0261 49.5228C27.9861 49.8859 28.8067 50.5006 29.3841 51.2893C29.9614 52.078 30.2696 53.0053 30.2696 53.9539C30.268 55.2254 29.714 56.4445 28.7289 57.3437C27.7439 58.2428 26.4084 58.7486 25.0154 58.75ZM25.0154 50.086C24.1773 50.086 23.3581 50.3129 22.6612 50.7379C21.9644 51.1629 21.4213 51.767 21.1006 52.4737C20.7799 53.1805 20.696 53.9582 20.8595 54.7084C21.023 55.4587 21.4265 56.1479 22.0191 56.6888C22.6117 57.2298 23.3667 57.5981 24.1887 57.7474C25.0107 57.8966 25.8626 57.82 26.6369 57.5273C27.4112 57.2345 28.0729 56.7388 28.5385 56.1027C29.0041 55.4667 29.2526 54.7189 29.2526 53.9539C29.2514 52.9284 28.8045 51.9453 28.0102 51.2202C27.2158 50.4951 26.1388 50.0872 25.0154 50.086V50.086Z" fill="#2F2E41"/>
<path d="M112.847 88.4719L101.475 80.5323L92.7767 90.9132L104.149 98.8529L112.847 88.4719Z" fill="#F0F0F0"/>
<path d="M48.5747 17.5963C50.3715 17.595 52.1438 17.9778 53.7494 18.714C55.3551 19.4503 56.7496 20.5195 57.8212 21.8361L64.4618 13.9105L44.5368 0L29.2977 18.1878L37.8853 24.1832C38.7447 22.2376 40.2215 20.571 42.1263 19.3973C44.031 18.2236 46.2766 17.5964 48.5747 17.5963V17.5963Z" fill="#F0F0F0"/>
<path d="M239.661 172H0.338983C0.249079 172 0.162857 171.967 0.0992856 171.909C0.0357139 171.851 0 171.773 0 171.691C0 171.609 0.0357139 171.53 0.0992856 171.472C0.162857 171.414 0.249079 171.381 0.338983 171.381H239.661C239.751 171.381 239.837 171.414 239.901 171.472C239.964 171.53 240 171.609 240 171.691C240 171.773 239.964 171.851 239.901 171.909C239.837 171.967 239.751 172 239.661 172Z" fill="#3F3D56"/>
<path d="M181.25 120.657H156.89C155.991 120.656 155.13 120.329 154.494 119.749C153.859 119.169 153.501 118.383 153.5 117.562V116.022C153.501 115.202 153.859 114.415 154.494 113.835C155.13 113.255 155.991 112.929 156.89 112.928H181.25C182.149 112.929 183.01 113.255 183.646 113.835C184.281 114.415 184.639 115.202 184.64 116.022V117.562C184.639 118.383 184.281 119.169 183.646 119.749C183.01 120.329 182.149 120.656 181.25 120.657V120.657Z" fill="#4FD3C4"/>
<path d="M183.817 117.688H159.457C158.513 117.687 157.608 117.344 156.941 116.735C156.274 116.126 155.898 115.3 155.897 114.439V112.898C155.898 112.037 156.274 111.211 156.941 110.602C157.608 109.993 158.513 109.65 159.457 109.649H183.817C184.76 109.65 185.665 109.993 186.332 110.602C187 111.211 187.375 112.037 187.376 112.898V114.439C187.375 115.3 187 116.126 186.332 116.735C185.665 117.344 184.76 117.687 183.817 117.688V117.688ZM159.457 110.268C158.693 110.269 157.96 110.546 157.42 111.039C156.88 111.533 156.576 112.201 156.575 112.898V114.439C156.576 115.136 156.88 115.804 157.42 116.297C157.96 116.791 158.693 117.068 159.457 117.069H183.817C184.581 117.068 185.313 116.791 185.853 116.297C186.393 115.804 186.697 115.136 186.698 114.439V112.898C186.697 112.201 186.393 111.533 185.853 111.039C185.313 110.546 184.581 110.269 183.817 110.268H159.457Z" fill="#3F3D56"/>
</svg>
